<mxfile host="app.diagrams.net" modified="2021-02-19T15:09:14.283Z" agent="5.0 (Windows NT 10.0; Win64; x64) AppleWebKit/537.36 (KHTML, like Gecko) Chrome/88.0.4324.150 Safari/537.36 Edg/88.0.705.68" etag="hCw5Q61X--MuYpTXTiR3" version="14.2.7" type="github" pages="4">
  <diagram id="R2hjK7i7MwMWNdko95Vd" name="Expression">
    <mxGraphModel dx="813" dy="477" grid="1" gridSize="10" guides="1" tooltips="1" connect="1" arrows="1" fold="1" page="1" pageScale="1" pageWidth="827" pageHeight="1169" math="0" shadow="0">
      <root>
        <mxCell id="0" />
        <mxCell id="1" parent="0" />
        <mxCell id="NezbY3cjoQyKJqXcxgEW-25" style="edgeStyle=orthogonalEdgeStyle;rounded=0;orthogonalLoop=1;jettySize=auto;html=1;entryX=0;entryY=0.5;entryDx=0;entryDy=0;" edge="1" parent="1" source="5iWXmvbj_Rx-WgGxY41X-1" target="NezbY3cjoQyKJqXcxgEW-10">
          <mxGeometry relative="1" as="geometry" />
        </mxCell>
        <mxCell id="5iWXmvbj_Rx-WgGxY41X-1" value="" style="ellipse;html=1;shape=startState;fillColor=#000000;strokeColor=#ff0000;" parent="1" vertex="1">
          <mxGeometry x="30" y="115" width="30" height="30" as="geometry" />
        </mxCell>
        <mxCell id="5iWXmvbj_Rx-WgGxY41X-13" value="" style="ellipse;html=1;shape=endState;fillColor=#000000;strokeColor=#ff0000;" parent="1" vertex="1">
          <mxGeometry x="650" y="115" width="32" height="30" as="geometry" />
        </mxCell>
        <mxCell id="NezbY3cjoQyKJqXcxgEW-18" style="edgeStyle=orthogonalEdgeStyle;rounded=0;orthogonalLoop=1;jettySize=auto;html=1;entryX=0.5;entryY=1;entryDx=0;entryDy=0;" edge="1" parent="1" source="5iWXmvbj_Rx-WgGxY41X-25" target="5iWXmvbj_Rx-WgGxY41X-13">
          <mxGeometry relative="1" as="geometry" />
        </mxCell>
        <mxCell id="5iWXmvbj_Rx-WgGxY41X-25" value=")" style="rounded=1;whiteSpace=wrap;html=1;" parent="1" vertex="1">
          <mxGeometry x="655" y="199.97" width="22" height="20" as="geometry" />
        </mxCell>
        <mxCell id="NezbY3cjoQyKJqXcxgEW-28" style="edgeStyle=orthogonalEdgeStyle;rounded=0;orthogonalLoop=1;jettySize=auto;html=1;exitX=0.5;exitY=1;exitDx=0;exitDy=0;" edge="1" parent="1" source="5iWXmvbj_Rx-WgGxY41X-27">
          <mxGeometry relative="1" as="geometry">
            <mxPoint x="80" y="130" as="targetPoint" />
            <Array as="points">
              <mxPoint x="666" y="280" />
              <mxPoint x="80" y="280" />
            </Array>
          </mxGeometry>
        </mxCell>
        <mxCell id="5iWXmvbj_Rx-WgGxY41X-27" value="," style="rounded=1;whiteSpace=wrap;html=1;" parent="1" vertex="1">
          <mxGeometry x="655" y="239.97" width="22" height="20" as="geometry" />
        </mxCell>
        <mxCell id="NezbY3cjoQyKJqXcxgEW-27" style="edgeStyle=orthogonalEdgeStyle;rounded=0;orthogonalLoop=1;jettySize=auto;html=1;entryX=0;entryY=0.5;entryDx=0;entryDy=0;" edge="1" parent="1" source="B5DMrPVUcm5mgzcBBxAL-1" target="NezbY3cjoQyKJqXcxgEW-20">
          <mxGeometry relative="1" as="geometry" />
        </mxCell>
        <mxCell id="B5DMrPVUcm5mgzcBBxAL-1" value="Argument Name" style="rounded=0;whiteSpace=wrap;html=1;" parent="1" vertex="1">
          <mxGeometry x="400" y="219.97" width="102" height="20" as="geometry" />
        </mxCell>
        <mxCell id="NezbY3cjoQyKJqXcxgEW-5" value="Yes" style="edgeStyle=orthogonalEdgeStyle;rounded=0;orthogonalLoop=1;jettySize=auto;html=1;exitX=0.5;exitY=1;exitDx=0;exitDy=0;entryX=0;entryY=0.5;entryDx=0;entryDy=0;" edge="1" parent="1" source="NezbY3cjoQyKJqXcxgEW-1" target="NezbY3cjoQyKJqXcxgEW-4">
          <mxGeometry relative="1" as="geometry" />
        </mxCell>
        <mxCell id="NezbY3cjoQyKJqXcxgEW-15" style="edgeStyle=orthogonalEdgeStyle;rounded=0;orthogonalLoop=1;jettySize=auto;html=1;entryX=0;entryY=0.5;entryDx=0;entryDy=0;" edge="1" parent="1" source="NezbY3cjoQyKJqXcxgEW-1" target="5iWXmvbj_Rx-WgGxY41X-13">
          <mxGeometry relative="1" as="geometry" />
        </mxCell>
        <mxCell id="NezbY3cjoQyKJqXcxgEW-1" value="Is Expression" style="rhombus;whiteSpace=wrap;html=1;" vertex="1" parent="1">
          <mxGeometry x="190" y="90" width="80" height="80" as="geometry" />
        </mxCell>
        <mxCell id="NezbY3cjoQyKJqXcxgEW-19" value="No" style="edgeStyle=orthogonalEdgeStyle;rounded=0;orthogonalLoop=1;jettySize=auto;html=1;" edge="1" parent="1" source="NezbY3cjoQyKJqXcxgEW-4">
          <mxGeometry relative="1" as="geometry">
            <mxPoint x="310" y="130" as="targetPoint" />
          </mxGeometry>
        </mxCell>
        <mxCell id="NezbY3cjoQyKJqXcxgEW-26" value="Yes" style="edgeStyle=orthogonalEdgeStyle;rounded=0;orthogonalLoop=1;jettySize=auto;html=1;entryX=0;entryY=0.5;entryDx=0;entryDy=0;" edge="1" parent="1" source="NezbY3cjoQyKJqXcxgEW-4" target="B5DMrPVUcm5mgzcBBxAL-1">
          <mxGeometry relative="1" as="geometry" />
        </mxCell>
        <mxCell id="NezbY3cjoQyKJqXcxgEW-4" value="(" style="rhombus;whiteSpace=wrap;html=1;" vertex="1" parent="1">
          <mxGeometry x="270" y="189.97" width="80" height="80" as="geometry" />
        </mxCell>
        <mxCell id="NezbY3cjoQyKJqXcxgEW-13" style="edgeStyle=orthogonalEdgeStyle;rounded=0;orthogonalLoop=1;jettySize=auto;html=1;entryX=0;entryY=0.5;entryDx=0;entryDy=0;" edge="1" parent="1" source="NezbY3cjoQyKJqXcxgEW-10" target="NezbY3cjoQyKJqXcxgEW-1">
          <mxGeometry relative="1" as="geometry" />
        </mxCell>
        <mxCell id="NezbY3cjoQyKJqXcxgEW-10" value="Path" style="rounded=0;whiteSpace=wrap;html=1;" vertex="1" parent="1">
          <mxGeometry x="110" y="120" width="50" height="20" as="geometry" />
        </mxCell>
        <mxCell id="NezbY3cjoQyKJqXcxgEW-22" style="edgeStyle=orthogonalEdgeStyle;rounded=0;orthogonalLoop=1;jettySize=auto;html=1;entryX=0;entryY=0.5;entryDx=0;entryDy=0;" edge="1" parent="1" source="NezbY3cjoQyKJqXcxgEW-20" target="5iWXmvbj_Rx-WgGxY41X-25">
          <mxGeometry relative="1" as="geometry" />
        </mxCell>
        <mxCell id="NezbY3cjoQyKJqXcxgEW-23" style="edgeStyle=orthogonalEdgeStyle;rounded=0;orthogonalLoop=1;jettySize=auto;html=1;entryX=0;entryY=0.5;entryDx=0;entryDy=0;" edge="1" parent="1" source="NezbY3cjoQyKJqXcxgEW-20" target="5iWXmvbj_Rx-WgGxY41X-27">
          <mxGeometry relative="1" as="geometry" />
        </mxCell>
        <mxCell id="NezbY3cjoQyKJqXcxgEW-20" value="Expression" style="rounded=0;whiteSpace=wrap;html=1;" vertex="1" parent="1">
          <mxGeometry x="530" y="219.97" width="70" height="20" as="geometry" />
        </mxCell>
      </root>
    </mxGraphModel>
  </diagram>
  <diagram id="T_QfmuFFNBZm-xINONo7" name="ArgumentName">
    <mxGraphModel dx="569" dy="334" grid="1" gridSize="10" guides="1" tooltips="1" connect="1" arrows="1" fold="1" page="1" pageScale="1" pageWidth="827" pageHeight="1169" math="0" shadow="0">
      <root>
        <mxCell id="hi5z_iqtNU-K8h0Tbb7p-0" />
        <mxCell id="hi5z_iqtNU-K8h0Tbb7p-1" parent="hi5z_iqtNU-K8h0Tbb7p-0" />
        <mxCell id="XPC5rsmA2HFkxil_ljjG-2" style="edgeStyle=orthogonalEdgeStyle;rounded=0;orthogonalLoop=1;jettySize=auto;html=1;entryX=0;entryY=0.5;entryDx=0;entryDy=0;" parent="hi5z_iqtNU-K8h0Tbb7p-1" source="XPC5rsmA2HFkxil_ljjG-3" target="XPC5rsmA2HFkxil_ljjG-4" edge="1">
          <mxGeometry relative="1" as="geometry" />
        </mxCell>
        <mxCell id="XPC5rsmA2HFkxil_ljjG-3" value="(a-Z)" style="rounded=1;whiteSpace=wrap;html=1;" parent="hi5z_iqtNU-K8h0Tbb7p-1" vertex="1">
          <mxGeometry x="220" y="60" width="40" height="30" as="geometry" />
        </mxCell>
        <mxCell id="XPC5rsmA2HFkxil_ljjG-7" style="edgeStyle=orthogonalEdgeStyle;rounded=0;orthogonalLoop=1;jettySize=auto;html=1;entryX=0;entryY=0.5;entryDx=0;entryDy=0;" parent="hi5z_iqtNU-K8h0Tbb7p-1" source="XPC5rsmA2HFkxil_ljjG-4" target="XPC5rsmA2HFkxil_ljjG-6" edge="1">
          <mxGeometry relative="1" as="geometry" />
        </mxCell>
        <mxCell id="XPC5rsmA2HFkxil_ljjG-4" value="]" style="rounded=1;whiteSpace=wrap;html=1;" parent="hi5z_iqtNU-K8h0Tbb7p-1" vertex="1">
          <mxGeometry x="290" y="60" width="30" height="30" as="geometry" />
        </mxCell>
        <mxCell id="XPC5rsmA2HFkxil_ljjG-6" value="" style="ellipse;html=1;shape=endState;fillColor=#000000;strokeColor=#ff0000;" parent="hi5z_iqtNU-K8h0Tbb7p-1" vertex="1">
          <mxGeometry x="350" y="60" width="30" height="30" as="geometry" />
        </mxCell>
        <mxCell id="S80b_b5_r-ShlipTyl0M-1" style="edgeStyle=orthogonalEdgeStyle;rounded=0;orthogonalLoop=1;jettySize=auto;html=1;entryX=0;entryY=0.5;entryDx=0;entryDy=0;" edge="1" parent="hi5z_iqtNU-K8h0Tbb7p-1" source="XPC5rsmA2HFkxil_ljjG-8" target="S80b_b5_r-ShlipTyl0M-0">
          <mxGeometry relative="1" as="geometry" />
        </mxCell>
        <mxCell id="XPC5rsmA2HFkxil_ljjG-8" value="" style="ellipse;html=1;shape=startState;fillColor=#000000;strokeColor=#ff0000;" parent="hi5z_iqtNU-K8h0Tbb7p-1" vertex="1">
          <mxGeometry x="20" y="60" width="30" height="30" as="geometry" />
        </mxCell>
        <mxCell id="S80b_b5_r-ShlipTyl0M-2" value="Yes" style="edgeStyle=orthogonalEdgeStyle;rounded=0;orthogonalLoop=1;jettySize=auto;html=1;entryX=0;entryY=0.5;entryDx=0;entryDy=0;" edge="1" parent="hi5z_iqtNU-K8h0Tbb7p-1" source="S80b_b5_r-ShlipTyl0M-0" target="XPC5rsmA2HFkxil_ljjG-3">
          <mxGeometry relative="1" as="geometry" />
        </mxCell>
        <mxCell id="S80b_b5_r-ShlipTyl0M-3" value="No" style="edgeStyle=orthogonalEdgeStyle;rounded=0;orthogonalLoop=1;jettySize=auto;html=1;" edge="1" parent="hi5z_iqtNU-K8h0Tbb7p-1" source="S80b_b5_r-ShlipTyl0M-0">
          <mxGeometry relative="1" as="geometry">
            <mxPoint x="330" y="75" as="targetPoint" />
            <Array as="points">
              <mxPoint x="130" y="160" />
              <mxPoint x="330" y="160" />
            </Array>
          </mxGeometry>
        </mxCell>
        <mxCell id="S80b_b5_r-ShlipTyl0M-0" value="[" style="rhombus;whiteSpace=wrap;html=1;" vertex="1" parent="hi5z_iqtNU-K8h0Tbb7p-1">
          <mxGeometry x="90" y="35" width="80" height="80" as="geometry" />
        </mxCell>
      </root>
    </mxGraphModel>
  </diagram>
  <diagram id="Y2QrPfyOffSdU7ghS_rO" name="path">
    <mxGraphModel dx="813" dy="477" grid="1" gridSize="10" guides="1" tooltips="1" connect="1" arrows="1" fold="1" page="1" pageScale="1" pageWidth="827" pageHeight="1169" math="0" shadow="0">
      <root>
        <mxCell id="v0ipl6a5Gqs5QlfA9L5P-0" />
        <mxCell id="v0ipl6a5Gqs5QlfA9L5P-1" parent="v0ipl6a5Gqs5QlfA9L5P-0" />
        <mxCell id="v0ipl6a5Gqs5QlfA9L5P-2" value="" style="ellipse;html=1;shape=startState;fillColor=#000000;strokeColor=#ff0000;" parent="v0ipl6a5Gqs5QlfA9L5P-1" vertex="1">
          <mxGeometry x="40" y="97.5" width="30" height="30" as="geometry" />
        </mxCell>
        <mxCell id="v0ipl6a5Gqs5QlfA9L5P-3" value="" style="edgeStyle=orthogonalEdgeStyle;html=1;verticalAlign=bottom;endArrow=open;endSize=8;strokeColor=#ff0000;entryX=0;entryY=0.5;entryDx=0;entryDy=0;" parent="v0ipl6a5Gqs5QlfA9L5P-1" edge="1" target="FSQl6kZqmLauaBCFzUnG-4">
          <mxGeometry relative="1" as="geometry">
            <mxPoint x="120" y="112.5" as="targetPoint" />
            <mxPoint x="70" y="112.5" as="sourcePoint" />
          </mxGeometry>
        </mxCell>
        <mxCell id="FSQl6kZqmLauaBCFzUnG-0" value="" style="ellipse;html=1;shape=endState;fillColor=#000000;strokeColor=#ff0000;" vertex="1" parent="v0ipl6a5Gqs5QlfA9L5P-1">
          <mxGeometry x="460" y="97.5" width="30" height="30" as="geometry" />
        </mxCell>
        <mxCell id="FSQl6kZqmLauaBCFzUnG-6" style="edgeStyle=orthogonalEdgeStyle;rounded=0;orthogonalLoop=1;jettySize=auto;html=1;entryX=0;entryY=0.5;entryDx=0;entryDy=0;" edge="1" parent="v0ipl6a5Gqs5QlfA9L5P-1" source="FSQl6kZqmLauaBCFzUnG-3" target="FSQl6kZqmLauaBCFzUnG-0">
          <mxGeometry relative="1" as="geometry" />
        </mxCell>
        <mxCell id="FSQl6kZqmLauaBCFzUnG-3" value="Parse Path" style="rounded=0;whiteSpace=wrap;html=1;shadow=0;glass=0;sketch=0;gradientColor=none;" vertex="1" parent="v0ipl6a5Gqs5QlfA9L5P-1">
          <mxGeometry x="270" y="104" width="120" height="17" as="geometry" />
        </mxCell>
        <mxCell id="FSQl6kZqmLauaBCFzUnG-5" value="Yes" style="edgeStyle=orthogonalEdgeStyle;rounded=0;orthogonalLoop=1;jettySize=auto;html=1;" edge="1" parent="v0ipl6a5Gqs5QlfA9L5P-1" source="FSQl6kZqmLauaBCFzUnG-4">
          <mxGeometry relative="1" as="geometry">
            <mxPoint x="270" y="112.5" as="targetPoint" />
          </mxGeometry>
        </mxCell>
        <mxCell id="FSQl6kZqmLauaBCFzUnG-8" value="No" style="edgeStyle=orthogonalEdgeStyle;rounded=0;orthogonalLoop=1;jettySize=auto;html=1;exitX=0.5;exitY=1;exitDx=0;exitDy=0;entryX=0.5;entryY=0;entryDx=0;entryDy=0;" edge="1" parent="v0ipl6a5Gqs5QlfA9L5P-1" source="FSQl6kZqmLauaBCFzUnG-4" target="FSQl6kZqmLauaBCFzUnG-7">
          <mxGeometry relative="1" as="geometry" />
        </mxCell>
        <mxCell id="FSQl6kZqmLauaBCFzUnG-4" value="Is Path" style="rhombus;whiteSpace=wrap;html=1;" vertex="1" parent="v0ipl6a5Gqs5QlfA9L5P-1">
          <mxGeometry x="120" y="72.5" width="80" height="80" as="geometry" />
        </mxCell>
        <mxCell id="FSQl6kZqmLauaBCFzUnG-12" value="Yes" style="edgeStyle=orthogonalEdgeStyle;rounded=0;orthogonalLoop=1;jettySize=auto;html=1;entryX=0;entryY=0.5;entryDx=0;entryDy=0;" edge="1" parent="v0ipl6a5Gqs5QlfA9L5P-1" source="FSQl6kZqmLauaBCFzUnG-7" target="FSQl6kZqmLauaBCFzUnG-11">
          <mxGeometry relative="1" as="geometry">
            <Array as="points">
              <mxPoint x="220" y="220" />
              <mxPoint x="220" y="220" />
            </Array>
          </mxGeometry>
        </mxCell>
        <mxCell id="FSQl6kZqmLauaBCFzUnG-15" value="No" style="edgeStyle=orthogonalEdgeStyle;rounded=0;orthogonalLoop=1;jettySize=auto;html=1;exitX=0.5;exitY=1;exitDx=0;exitDy=0;entryX=0.5;entryY=0;entryDx=0;entryDy=0;" edge="1" parent="v0ipl6a5Gqs5QlfA9L5P-1" source="FSQl6kZqmLauaBCFzUnG-7" target="FSQl6kZqmLauaBCFzUnG-14">
          <mxGeometry relative="1" as="geometry" />
        </mxCell>
        <mxCell id="FSQl6kZqmLauaBCFzUnG-7" value="is Number" style="rhombus;whiteSpace=wrap;html=1;" vertex="1" parent="v0ipl6a5Gqs5QlfA9L5P-1">
          <mxGeometry x="120" y="180" width="80" height="80" as="geometry" />
        </mxCell>
        <mxCell id="FSQl6kZqmLauaBCFzUnG-13" style="edgeStyle=orthogonalEdgeStyle;rounded=0;orthogonalLoop=1;jettySize=auto;html=1;entryX=0;entryY=0.5;entryDx=0;entryDy=0;" edge="1" parent="v0ipl6a5Gqs5QlfA9L5P-1" source="FSQl6kZqmLauaBCFzUnG-11" target="FSQl6kZqmLauaBCFzUnG-0">
          <mxGeometry relative="1" as="geometry" />
        </mxCell>
        <mxCell id="FSQl6kZqmLauaBCFzUnG-11" value="Parse Number" style="rounded=0;whiteSpace=wrap;html=1;shadow=0;glass=0;sketch=0;gradientColor=none;" vertex="1" parent="v0ipl6a5Gqs5QlfA9L5P-1">
          <mxGeometry x="270" y="211.5" width="120" height="17" as="geometry" />
        </mxCell>
        <mxCell id="FSQl6kZqmLauaBCFzUnG-18" value="Yes" style="edgeStyle=orthogonalEdgeStyle;rounded=0;orthogonalLoop=1;jettySize=auto;html=1;entryX=0;entryY=0.5;entryDx=0;entryDy=0;" edge="1" parent="v0ipl6a5Gqs5QlfA9L5P-1" source="FSQl6kZqmLauaBCFzUnG-14" target="FSQl6kZqmLauaBCFzUnG-17">
          <mxGeometry relative="1" as="geometry" />
        </mxCell>
        <mxCell id="FSQl6kZqmLauaBCFzUnG-14" value="is Number" style="rhombus;whiteSpace=wrap;html=1;" vertex="1" parent="v0ipl6a5Gqs5QlfA9L5P-1">
          <mxGeometry x="120" y="290" width="80" height="80" as="geometry" />
        </mxCell>
        <mxCell id="FSQl6kZqmLauaBCFzUnG-19" style="edgeStyle=orthogonalEdgeStyle;rounded=0;orthogonalLoop=1;jettySize=auto;html=1;entryX=0;entryY=0.5;entryDx=0;entryDy=0;" edge="1" parent="v0ipl6a5Gqs5QlfA9L5P-1" source="FSQl6kZqmLauaBCFzUnG-17" target="FSQl6kZqmLauaBCFzUnG-0">
          <mxGeometry relative="1" as="geometry" />
        </mxCell>
        <mxCell id="FSQl6kZqmLauaBCFzUnG-17" value="Parse string" style="rounded=0;whiteSpace=wrap;html=1;shadow=0;glass=0;sketch=0;gradientColor=none;" vertex="1" parent="v0ipl6a5Gqs5QlfA9L5P-1">
          <mxGeometry x="270" y="321.5" width="120" height="17" as="geometry" />
        </mxCell>
      </root>
    </mxGraphModel>
  </diagram>
  <diagram id="eQ72gwYSjKhP9PuJAKN6" name="Expression">
    <mxGraphModel dx="1185" dy="695" grid="1" gridSize="10" guides="1" tooltips="1" connect="1" arrows="1" fold="1" page="1" pageScale="1" pageWidth="827" pageHeight="1169" math="0" shadow="0">
      <root>
        <mxCell id="bBwdQ2U95GiAk_tdV7Ny-0" />
        <mxCell id="bBwdQ2U95GiAk_tdV7Ny-1" parent="bBwdQ2U95GiAk_tdV7Ny-0" />
        <mxCell id="o_8liZXhjygO4vX5Yi7e-23" style="edgeStyle=orthogonalEdgeStyle;rounded=0;orthogonalLoop=1;jettySize=auto;html=1;entryX=0;entryY=0.5;entryDx=0;entryDy=0;" edge="1" parent="bBwdQ2U95GiAk_tdV7Ny-1" source="nQ5JJsbvPmfZ5wyZw12K-1" target="mRHdIXmAR8nMjhSAx--G-3">
          <mxGeometry relative="1" as="geometry" />
        </mxCell>
        <mxCell id="nQ5JJsbvPmfZ5wyZw12K-1" value="" style="ellipse;html=1;shape=startState;fillColor=#000000;strokeColor=#ff0000;" vertex="1" parent="bBwdQ2U95GiAk_tdV7Ny-1">
          <mxGeometry x="20" y="395" width="30" height="30" as="geometry" />
        </mxCell>
        <mxCell id="o_8liZXhjygO4vX5Yi7e-8" style="edgeStyle=orthogonalEdgeStyle;rounded=0;orthogonalLoop=1;jettySize=auto;html=1;entryX=0;entryY=0.5;entryDx=0;entryDy=0;" edge="1" parent="bBwdQ2U95GiAk_tdV7Ny-1" source="nQ5JJsbvPmfZ5wyZw12K-4" target="o_8liZXhjygO4vX5Yi7e-46">
          <mxGeometry relative="1" as="geometry">
            <mxPoint x="650.0000000000091" y="540" as="targetPoint" />
          </mxGeometry>
        </mxCell>
        <mxCell id="nQ5JJsbvPmfZ5wyZw12K-4" value=")" style="rounded=1;whiteSpace=wrap;html=1;" vertex="1" parent="bBwdQ2U95GiAk_tdV7Ny-1">
          <mxGeometry x="520" y="600" width="22" height="20" as="geometry" />
        </mxCell>
        <mxCell id="o_8liZXhjygO4vX5Yi7e-51" style="edgeStyle=orthogonalEdgeStyle;rounded=0;orthogonalLoop=1;jettySize=auto;html=1;entryX=0;entryY=0.5;entryDx=0;entryDy=0;" edge="1" parent="bBwdQ2U95GiAk_tdV7Ny-1" source="nQ5JJsbvPmfZ5wyZw12K-6" target="nQ5JJsbvPmfZ5wyZw12K-19">
          <mxGeometry relative="1" as="geometry">
            <Array as="points">
              <mxPoint x="350" y="660" />
              <mxPoint x="350" y="610" />
            </Array>
          </mxGeometry>
        </mxCell>
        <mxCell id="nQ5JJsbvPmfZ5wyZw12K-6" value="," style="rounded=1;whiteSpace=wrap;html=1;" vertex="1" parent="bBwdQ2U95GiAk_tdV7Ny-1">
          <mxGeometry x="466" y="650" width="22" height="20" as="geometry" />
        </mxCell>
        <mxCell id="nQ5JJsbvPmfZ5wyZw12K-13" value="Yes" style="edgeStyle=orthogonalEdgeStyle;rounded=0;orthogonalLoop=1;jettySize=auto;html=1;entryX=0;entryY=0.5;entryDx=0;entryDy=0;exitX=0.5;exitY=1;exitDx=0;exitDy=0;" edge="1" parent="bBwdQ2U95GiAk_tdV7Ny-1" source="nQ5JJsbvPmfZ5wyZw12K-14" target="o_8liZXhjygO4vX5Yi7e-5">
          <mxGeometry relative="1" as="geometry">
            <mxPoint x="80" y="540" as="targetPoint" />
            <Array as="points">
              <mxPoint x="420" y="460" />
              <mxPoint x="30" y="460" />
              <mxPoint x="30" y="610" />
            </Array>
          </mxGeometry>
        </mxCell>
        <mxCell id="o_8liZXhjygO4vX5Yi7e-27" value="No" style="edgeStyle=orthogonalEdgeStyle;rounded=0;orthogonalLoop=1;jettySize=auto;html=1;entryX=0;entryY=0.5;entryDx=0;entryDy=0;" edge="1" parent="bBwdQ2U95GiAk_tdV7Ny-1" source="nQ5JJsbvPmfZ5wyZw12K-14" target="o_8liZXhjygO4vX5Yi7e-46">
          <mxGeometry relative="1" as="geometry">
            <mxPoint x="650.0000000000091" y="540" as="targetPoint" />
            <Array as="points">
              <mxPoint x="640" y="410" />
              <mxPoint x="640" y="540" />
            </Array>
          </mxGeometry>
        </mxCell>
        <mxCell id="nQ5JJsbvPmfZ5wyZw12K-14" value="(" style="rhombus;whiteSpace=wrap;html=1;" vertex="1" parent="bBwdQ2U95GiAk_tdV7Ny-1">
          <mxGeometry x="380" y="370" width="80" height="80" as="geometry" />
        </mxCell>
        <mxCell id="nQ5JJsbvPmfZ5wyZw12K-17" style="edgeStyle=orthogonalEdgeStyle;rounded=0;orthogonalLoop=1;jettySize=auto;html=1;entryX=0;entryY=0.5;entryDx=0;entryDy=0;" edge="1" parent="bBwdQ2U95GiAk_tdV7Ny-1" source="nQ5JJsbvPmfZ5wyZw12K-19" target="nQ5JJsbvPmfZ5wyZw12K-4">
          <mxGeometry relative="1" as="geometry" />
        </mxCell>
        <mxCell id="nQ5JJsbvPmfZ5wyZw12K-18" style="edgeStyle=orthogonalEdgeStyle;rounded=0;orthogonalLoop=1;jettySize=auto;html=1;entryX=0.5;entryY=0;entryDx=0;entryDy=0;" edge="1" parent="bBwdQ2U95GiAk_tdV7Ny-1" source="nQ5JJsbvPmfZ5wyZw12K-19" target="nQ5JJsbvPmfZ5wyZw12K-6">
          <mxGeometry relative="1" as="geometry" />
        </mxCell>
        <mxCell id="nQ5JJsbvPmfZ5wyZw12K-19" value="Expression" style="rounded=0;whiteSpace=wrap;html=1;" vertex="1" parent="bBwdQ2U95GiAk_tdV7Ny-1">
          <mxGeometry x="379" y="600" width="70" height="20" as="geometry" />
        </mxCell>
        <mxCell id="o_8liZXhjygO4vX5Yi7e-13" style="edgeStyle=orthogonalEdgeStyle;rounded=0;orthogonalLoop=1;jettySize=auto;html=1;entryX=0;entryY=0.5;entryDx=0;entryDy=0;" edge="1" parent="bBwdQ2U95GiAk_tdV7Ny-1" source="o_8liZXhjygO4vX5Yi7e-2" target="nQ5JJsbvPmfZ5wyZw12K-19">
          <mxGeometry relative="1" as="geometry" />
        </mxCell>
        <mxCell id="o_8liZXhjygO4vX5Yi7e-4" value="No" style="edgeStyle=orthogonalEdgeStyle;rounded=0;orthogonalLoop=1;jettySize=auto;html=1;entryX=0;entryY=0.5;entryDx=0;entryDy=0;" edge="1" parent="bBwdQ2U95GiAk_tdV7Ny-1" source="o_8liZXhjygO4vX5Yi7e-5" target="nQ5JJsbvPmfZ5wyZw12K-19">
          <mxGeometry relative="1" as="geometry">
            <mxPoint x="290" y="580" as="targetPoint" />
            <Array as="points">
              <mxPoint x="90" y="670" />
              <mxPoint x="320" y="670" />
              <mxPoint x="320" y="610" />
            </Array>
          </mxGeometry>
        </mxCell>
        <mxCell id="o_8liZXhjygO4vX5Yi7e-26" value="Argument Name" style="swimlane;" vertex="1" parent="bBwdQ2U95GiAk_tdV7Ny-1">
          <mxGeometry x="40" y="540" width="300" height="160" as="geometry">
            <mxRectangle x="40" y="470" width="130" height="23" as="alternateBounds" />
          </mxGeometry>
        </mxCell>
        <mxCell id="o_8liZXhjygO4vX5Yi7e-5" value="[" style="rhombus;whiteSpace=wrap;html=1;" vertex="1" parent="o_8liZXhjygO4vX5Yi7e-26">
          <mxGeometry x="10" y="30" width="80" height="80" as="geometry" />
        </mxCell>
        <mxCell id="o_8liZXhjygO4vX5Yi7e-1" value="(a-Z)" style="rounded=1;whiteSpace=wrap;html=1;" vertex="1" parent="o_8liZXhjygO4vX5Yi7e-26">
          <mxGeometry x="140" y="55" width="40" height="30" as="geometry" />
        </mxCell>
        <mxCell id="o_8liZXhjygO4vX5Yi7e-2" value="]" style="rounded=1;whiteSpace=wrap;html=1;" vertex="1" parent="o_8liZXhjygO4vX5Yi7e-26">
          <mxGeometry x="210" y="55" width="30" height="30" as="geometry" />
        </mxCell>
        <mxCell id="o_8liZXhjygO4vX5Yi7e-3" value="Yes" style="edgeStyle=orthogonalEdgeStyle;rounded=0;orthogonalLoop=1;jettySize=auto;html=1;entryX=0;entryY=0.5;entryDx=0;entryDy=0;" edge="1" parent="o_8liZXhjygO4vX5Yi7e-26" source="o_8liZXhjygO4vX5Yi7e-5" target="o_8liZXhjygO4vX5Yi7e-1">
          <mxGeometry relative="1" as="geometry" />
        </mxCell>
        <mxCell id="o_8liZXhjygO4vX5Yi7e-0" style="edgeStyle=orthogonalEdgeStyle;rounded=0;orthogonalLoop=1;jettySize=auto;html=1;entryX=0;entryY=0.5;entryDx=0;entryDy=0;" edge="1" parent="o_8liZXhjygO4vX5Yi7e-26" source="o_8liZXhjygO4vX5Yi7e-1" target="o_8liZXhjygO4vX5Yi7e-2">
          <mxGeometry relative="1" as="geometry" />
        </mxCell>
        <mxCell id="o_8liZXhjygO4vX5Yi7e-28" value="Path" style="swimlane;" vertex="1" parent="bBwdQ2U95GiAk_tdV7Ny-1">
          <mxGeometry x="80" y="100" width="280" height="350" as="geometry">
            <mxRectangle x="80" y="100" width="60" height="23" as="alternateBounds" />
          </mxGeometry>
        </mxCell>
        <mxCell id="o_8liZXhjygO4vX5Yi7e-40" value="No" style="edgeStyle=orthogonalEdgeStyle;rounded=0;orthogonalLoop=1;jettySize=auto;html=1;entryX=0;entryY=0.5;entryDx=0;entryDy=0;" edge="1" parent="o_8liZXhjygO4vX5Yi7e-28" source="o_8liZXhjygO4vX5Yi7e-31" target="o_8liZXhjygO4vX5Yi7e-35">
          <mxGeometry relative="1" as="geometry" />
        </mxCell>
        <mxCell id="o_8liZXhjygO4vX5Yi7e-31" value="Is String" style="rhombus;whiteSpace=wrap;html=1;" vertex="1" parent="o_8liZXhjygO4vX5Yi7e-28">
          <mxGeometry y="50" width="80" height="80" as="geometry" />
        </mxCell>
        <mxCell id="o_8liZXhjygO4vX5Yi7e-39" value="Yes" style="edgeStyle=orthogonalEdgeStyle;rounded=0;orthogonalLoop=1;jettySize=auto;html=1;exitX=0.5;exitY=0;exitDx=0;exitDy=0;entryX=0.5;entryY=1;entryDx=0;entryDy=0;" edge="1" parent="o_8liZXhjygO4vX5Yi7e-28" source="o_8liZXhjygO4vX5Yi7e-32" target="o_8liZXhjygO4vX5Yi7e-31">
          <mxGeometry relative="1" as="geometry" />
        </mxCell>
        <mxCell id="o_8liZXhjygO4vX5Yi7e-41" value="No" style="edgeStyle=orthogonalEdgeStyle;rounded=0;orthogonalLoop=1;jettySize=auto;html=1;entryX=0;entryY=0.5;entryDx=0;entryDy=0;" edge="1" parent="o_8liZXhjygO4vX5Yi7e-28" source="o_8liZXhjygO4vX5Yi7e-32" target="o_8liZXhjygO4vX5Yi7e-34">
          <mxGeometry relative="1" as="geometry" />
        </mxCell>
        <mxCell id="o_8liZXhjygO4vX5Yi7e-32" value="Is Number" style="rhombus;whiteSpace=wrap;html=1;" vertex="1" parent="o_8liZXhjygO4vX5Yi7e-28">
          <mxGeometry y="160" width="80" height="80" as="geometry" />
        </mxCell>
        <mxCell id="o_8liZXhjygO4vX5Yi7e-33" value="Parse Path" style="rounded=0;whiteSpace=wrap;html=1;shadow=0;glass=0;sketch=0;gradientColor=none;" vertex="1" parent="o_8liZXhjygO4vX5Yi7e-28">
          <mxGeometry x="150" y="301.5" width="120" height="17" as="geometry" />
        </mxCell>
        <mxCell id="o_8liZXhjygO4vX5Yi7e-34" value="Parse Number" style="rounded=0;whiteSpace=wrap;html=1;shadow=0;glass=0;sketch=0;gradientColor=none;" vertex="1" parent="o_8liZXhjygO4vX5Yi7e-28">
          <mxGeometry x="150" y="191.5" width="120" height="17" as="geometry" />
        </mxCell>
        <mxCell id="o_8liZXhjygO4vX5Yi7e-35" value="Parse string" style="rounded=0;whiteSpace=wrap;html=1;shadow=0;glass=0;sketch=0;gradientColor=none;" vertex="1" parent="o_8liZXhjygO4vX5Yi7e-28">
          <mxGeometry x="150" y="81.5" width="120" height="17" as="geometry" />
        </mxCell>
        <mxCell id="o_8liZXhjygO4vX5Yi7e-36" value="No" style="edgeStyle=orthogonalEdgeStyle;rounded=0;orthogonalLoop=1;jettySize=auto;html=1;entryX=0;entryY=0.5;entryDx=0;entryDy=0;" edge="1" parent="o_8liZXhjygO4vX5Yi7e-28" source="mRHdIXmAR8nMjhSAx--G-3" target="o_8liZXhjygO4vX5Yi7e-33">
          <mxGeometry relative="1" as="geometry" />
        </mxCell>
        <mxCell id="o_8liZXhjygO4vX5Yi7e-38" value="Yes" style="edgeStyle=orthogonalEdgeStyle;rounded=0;orthogonalLoop=1;jettySize=auto;html=1;entryX=0.5;entryY=1;entryDx=0;entryDy=0;" edge="1" parent="o_8liZXhjygO4vX5Yi7e-28" source="mRHdIXmAR8nMjhSAx--G-3" target="o_8liZXhjygO4vX5Yi7e-32">
          <mxGeometry relative="1" as="geometry" />
        </mxCell>
        <mxCell id="mRHdIXmAR8nMjhSAx--G-3" value="Is Path" style="rhombus;whiteSpace=wrap;html=1;" vertex="1" parent="o_8liZXhjygO4vX5Yi7e-28">
          <mxGeometry y="270" width="80" height="80" as="geometry" />
        </mxCell>
        <mxCell id="o_8liZXhjygO4vX5Yi7e-37" style="edgeStyle=orthogonalEdgeStyle;rounded=0;orthogonalLoop=1;jettySize=auto;html=1;entryX=0;entryY=0.5;entryDx=0;entryDy=0;" edge="1" parent="bBwdQ2U95GiAk_tdV7Ny-1" source="o_8liZXhjygO4vX5Yi7e-33" target="nQ5JJsbvPmfZ5wyZw12K-14">
          <mxGeometry relative="1" as="geometry" />
        </mxCell>
        <mxCell id="o_8liZXhjygO4vX5Yi7e-42" style="edgeStyle=orthogonalEdgeStyle;rounded=0;orthogonalLoop=1;jettySize=auto;html=1;entryX=0;entryY=0.5;entryDx=0;entryDy=0;" edge="1" parent="bBwdQ2U95GiAk_tdV7Ny-1" source="o_8liZXhjygO4vX5Yi7e-35" target="o_8liZXhjygO4vX5Yi7e-46">
          <mxGeometry relative="1" as="geometry">
            <mxPoint x="650.0000000000091" y="540" as="targetPoint" />
            <Array as="points">
              <mxPoint x="660" y="190" />
              <mxPoint x="660" y="540" />
            </Array>
          </mxGeometry>
        </mxCell>
        <mxCell id="o_8liZXhjygO4vX5Yi7e-43" style="edgeStyle=orthogonalEdgeStyle;rounded=0;orthogonalLoop=1;jettySize=auto;html=1;entryX=0;entryY=0.5;entryDx=0;entryDy=0;" edge="1" parent="bBwdQ2U95GiAk_tdV7Ny-1" source="o_8liZXhjygO4vX5Yi7e-34" target="o_8liZXhjygO4vX5Yi7e-46">
          <mxGeometry relative="1" as="geometry">
            <mxPoint x="650.0000000000091" y="540" as="targetPoint" />
            <Array as="points">
              <mxPoint x="650" y="300" />
              <mxPoint x="650" y="540" />
            </Array>
          </mxGeometry>
        </mxCell>
        <mxCell id="o_8liZXhjygO4vX5Yi7e-48" value="Yes" style="edgeStyle=orthogonalEdgeStyle;rounded=0;orthogonalLoop=1;jettySize=auto;html=1;entryX=0;entryY=0.5;entryDx=0;entryDy=0;" edge="1" parent="bBwdQ2U95GiAk_tdV7Ny-1" source="o_8liZXhjygO4vX5Yi7e-46" target="o_8liZXhjygO4vX5Yi7e-47">
          <mxGeometry relative="1" as="geometry" />
        </mxCell>
        <mxCell id="o_8liZXhjygO4vX5Yi7e-49" value="No" style="edgeStyle=orthogonalEdgeStyle;rounded=0;orthogonalLoop=1;jettySize=auto;html=1;entryX=0;entryY=0.5;entryDx=0;entryDy=0;" edge="1" parent="bBwdQ2U95GiAk_tdV7Ny-1" source="o_8liZXhjygO4vX5Yi7e-46" target="mRHdIXmAR8nMjhSAx--G-3">
          <mxGeometry relative="1" as="geometry">
            <mxPoint x="680" y="150" as="targetPoint" />
            <Array as="points">
              <mxPoint x="720" y="80" />
              <mxPoint x="60" y="80" />
              <mxPoint x="60" y="410" />
            </Array>
          </mxGeometry>
        </mxCell>
        <mxCell id="o_8liZXhjygO4vX5Yi7e-46" value="Is EOEX" style="rhombus;whiteSpace=wrap;html=1;" vertex="1" parent="bBwdQ2U95GiAk_tdV7Ny-1">
          <mxGeometry x="680" y="500" width="80" height="80" as="geometry" />
        </mxCell>
        <mxCell id="o_8liZXhjygO4vX5Yi7e-47" value="" style="ellipse;html=1;shape=endState;fillColor=#000000;strokeColor=#ff0000;" vertex="1" parent="bBwdQ2U95GiAk_tdV7Ny-1">
          <mxGeometry x="790" y="525" width="30" height="30" as="geometry" />
        </mxCell>
      </root>
    </mxGraphModel>
  </diagram>
</mxfile>
